<svg xmlns="http://www.w3.org/2000/svg" aria-label="DRM Asesorías" viewBox="0 0 1034 927"><path fill="#E5211D" d="M419.8 23.8c-1 .2-2.1 1.4-2.4 2.8-.6 2.2-.1 25.3 1.2 57.5l.6 14.5-2.7 3.2c-1.6 1.9-3.6 3.2-5 3.2-1.3 0-5 .7-8.2 1.5-3.1.8-9 1.5-12.9 1.5-4 0-8.5.5-10.1 1.1-2.6 1-7.1 1.6-27.4 3.8-4.2.5-8.5 1.4-9.7 2-1.1.6-3.3 1.1-4.9 1.1-1.5.1-3.9.7-5.3 1.5s-3.7 1.4-5.1 1.5c-1.4 0-3.4.7-4.5 1.5-1 .8-3 1.5-4.4 1.5s-3.6.7-5 1.5-3.6 1.4-5 1.5c-1.5 0-3.1.5-3.6 1-.6.6-2.1 1.3-3.5 1.5-1.3.3-3.5 1-4.9 1.6-7.1 3.2-14.3 5.9-18 6.6-1.4.3-3 .9-3.5 1.4-.6.4-3.3 1.5-6 2.4-4.4 1.5-15.4 6.3-19.5 8.5-.8.5-6 3.2-11.5 6-5.5 2.9-11.4 6.3-13.2 7.6-1.7 1.3-3.5 2.4-3.9 2.4-1.2 0-10.7 6.2-15.5 10.2-2.5 2.1-4.8 3.8-5.2 3.8-1.3 0-15.1 10.7-18.2 14-1.6 1.8-7.3 6.9-12.5 11.5-12.4 10.8-22.2 20.5-26.9 26.9-2.1 2.8-5.3 6.4-7.1 8.1-1.8 1.6-5.6 6.2-8.5 10-2.9 3.9-6 7.6-6.9 8.4-.9.7-1.6 1.8-1.6 2.3 0 .6-1.3 2.7-3 4.8-1.6 2.1-3 4.2-3 4.8 0 .5-.6 1.5-1.4 2.1-.8.7-2.2 2.6-3.1 4.4s-3.2 5.9-5 9.2c-4 7.1-8.7 16.5-11 22-.9 2.2-2.1 4.7-2.6 5.5s-1.2 2.2-1.5 3-1 2.2-1.5 3-1.2 2.2-1.5 3c-.9 2.4-5.4 12.2-7 15.3-.8 1.6-1.4 3.4-1.4 4.2 0 .7-.7 1.8-1.5 2.5s-1.5 2.3-1.5 3.5-.7 2.8-1.5 3.5-1.5 2.5-1.5 4-.7 3.3-1.5 4-1.5 2.4-1.5 3.9-.5 3.2-1.1 3.8c-.7.7-1.3 2.3-1.4 3.6-.3 2.9-2.1 8.7-4.1 13.5-.8 1.8-1.4 4.7-1.4 6.5-.1 1.8-.7 4.3-1.5 5.7s-1.5 4.1-1.5 6-.7 4.4-1.5 5.4c-.8 1.1-1.5 4-1.5 6.4s-.5 5.2-1.1 6.3c-1.1 2.1-2.3 9.9-3.9 24.9-.5 4.7-1.4 10.3-1.9 12.5-1.4 5.2-1.4 31.1-.1 38.9.6 3.4 1.5 15.5 2 27.1 1.1 24.7 2.1 34.2 3.8 37.2.7 1.2 1.2 4.3 1.2 7 .1 2.6.7 5.9 1.5 7.3s1.5 3.8 1.5 5.5c0 1.6.7 3.9 1.5 4.9.8 1.1 1.5 2.9 1.5 4 0 1.2.7 3 1.5 4 .8 1.1 1.5 3 1.5 4.2 0 1.3.5 2.6 1 2.9.6.3 1 1.4 1 2.3s.7 3 1.5 4.6c.8 1.5 1.5 3.6 1.5 4.6s.7 2.3 1.5 3 1.5 2.1 1.5 3c0 1 .6 3.1 1.4 4.7.8 1.5 2.4 4.9 3.6 7.5 1.1 2.6 2.5 5 3.1 5.3.5.4.9 1.4.9 2.4 0 2.1 2.7 7.8 4.1 8.6.5.4.9 1.4.9 2.4s.7 2.4 1.5 3.1 1.5 2 1.5 3 .7 2 1.5 2.4c.8.3 1.5 1.3 1.5 2.1 0 .9 1 3.1 2.3 4.8 3.1 4.5 4.5 6.7 6 10.2.8 1.6 2.4 3.9 3.6 4.9 1.1 1.1 2.1 2.4 2.1 3 0 .7 1.3 2.7 3 4.6 1.6 1.9 2.9 4 3 4.7 0 .6 3.4 4.6 7.5 8.7 6.4 6.5 8.1 7.6 10.9 7.6 2.1 0 3.6-.6 4-1.5.3-.8 1.2-1.5 2.1-1.5s2.8-1.1 4.3-2.5 3.2-2.5 3.9-2.5c2.3 0 14.3-8.8 27.3-20.1 16.1-14 20.5-17.6 23.8-20.2 2-1.5 7.4-6.5 12-11 9.6-9.6 10.1-11.3 4.6-17.9-2-2.3-4.7-6.6-6-9.5-1.3-2.8-2.9-5.5-3.4-5.8-.6-.3-1-1.4-1-2.4s-.7-2.4-1.5-3.1-1.5-2-1.5-3-.7-2.3-1.5-3-1.5-2.5-1.5-4-.7-3.3-1.5-4-1.5-2.5-1.5-3.9c0-1.5-.7-3.6-1.5-4.7-.8-1-1.5-3.8-1.5-6.1s-.4-4.5-1-4.8c-.5-.3-1-2.7-1-5.3 0-2.7-.8-7.5-1.7-10.7-1.5-5.2-1.7-11-1.5-45.1.1-25.2.6-40.2 1.3-42 .5-1.6 1.3-6.6 1.6-11.2.3-4.5 1-8.5 1.5-8.8.4-.3.8-2.4.8-4.7.1-2.3.7-5.3 1.5-6.7s1.4-3.9 1.5-5.6c0-1.6.7-3.9 1.5-5 .8-1 1.5-3.3 1.5-4.9 0-1.7.7-3.9 1.5-4.9.8-1.1 1.5-2.7 1.5-3.7 0-.9.7-3 1.5-4.5.8-1.6 1.5-4.1 1.5-5.6s.5-3 1-3.3c.6-.3 1-1.9 1-3.4s.7-3.6 1.5-4.7c.8-1 1.5-2.8 1.5-4 0-1.1.7-2.9 1.5-4 .8-1 1.5-2.7 1.5-3.7 0-1.1.6-3.1 1.4-4.5.8-1.5 2.4-4.7 3.5-7.2 1.2-2.5 3.5-6.8 5.1-9.5 1.6-2.8 3.3-5.7 3.7-6.5 1.2-2.5 9.4-13.3 17.3-22.5 8.9-10.4 32.1-34.5 33.2-34.5.5 0 3.2-1.9 6.2-4.3 6.2-4.9 31-21.2 36.1-23.7 1.1-.5 4.3-2.3 7-4 2.8-1.6 6.2-3.5 7.8-4.1 1.5-.6 2.7-1.5 2.7-2s1-.9 2.3-.9c1.2 0 3.1-.7 4.1-1.5 1.1-.8 2.7-1.5 3.7-1.5.9 0 2.2-.7 2.9-1.5s2.3-1.5 3.5-1.5c1.3 0 3.6-.6 5.2-1.4 3.8-1.9 9.5-3.6 11.9-3.6 1.1 0 2.9-.7 4-1.5 1-.8 2.8-1.5 4-1.5 1.1 0 2.9-.7 4-1.5 1-.8 2.8-1.5 4-1.5 1.1 0 2.9-.7 4-1.5 1-.8 3.6-1.5 5.7-1.5s4.8-.5 6-1.2c3-1.6 17.8-2.8 20-1.7 1.6.9 1.7 3.3 1.7 28.3v27.3l2.4 2.2c2.1 2 3 2.2 7.2 1.5 2.7-.4 6.6-1.8 8.6-3 2.1-1.3 4.1-2.4 4.6-2.4s1.7-1 2.8-2.1c1-1.2 4.2-3.6 6.9-5.4 2.8-1.8 5.9-4.2 6.9-5.4 1.1-1.1 2.3-2.1 2.9-2.1.5 0 4.1-2.4 8.1-5.3 3.9-3 10.3-7.4 14.1-9.8 3.9-2.4 9.7-6.2 13-8.5 3.3-2.2 9.6-6.5 14-9.5s9.7-6.3 11.8-7.4c2-1.1 3.7-2.3 3.7-2.6 0-.4 1-.9 2.3-1.3 1.2-.3 3.4-1.7 4.9-3.1s3.3-2.5 4.1-2.5c.7 0 2.6-1.4 4.2-3 1.6-1.7 3.3-3 3.8-3 .6 0 2.5-1.1 4.3-2.5s3.5-2.5 3.8-2.5c.4 0 3.9-2.4 7.9-5.3 3.9-2.9 8.8-6.3 10.8-7.5 1.9-1.2 4.3-3 5.3-4.1s3.6-2.9 5.8-4.1c2.1-1.1 4.5-2.5 5.1-3 2.5-2 11.8-8.6 15.4-10.8 6.6-4.1 12.3-10.3 12.3-13.5 0-1.6-3.3-4.6-8-7.1-1.9-1-5.8-3.6-8.7-5.7-2.9-2.2-5.9-3.9-6.8-3.9s-1.8-.7-2.1-1.5c-.4-.8-1-1.5-1.5-1.5s-4.6-2.5-9-5.5-8.3-5.5-8.7-5.5-2.3-1.3-4.2-3c-1.9-1.6-4-2.9-4.5-3-.6 0-2.6-1.3-4.5-3-1.9-1.6-3.9-2.9-4.3-3-.9 0-12.7-8-14.2-9.6-.5-.6-4.6-3.5-9-6.4s-9.6-6.6-11.5-8.2c-1.9-1.5-3.9-2.8-4.4-2.8s-2.8-1.7-5.1-3.8c-2.3-2-7-5.7-10.5-8.2s-9.8-7.4-14.1-11c-4.2-3.6-14.5-11.9-22.9-18.5S445.8 41.9 443.5 40c-19.5-16.2-20.6-16.9-23.7-16.2m581.7 37.3c-2.2 1.2-4.7 2.7-5.6 3.5-.8.8-1.9 1.4-2.2 1.4-1 0-13 8.2-14.2 9.6-.5.7-2.4 2.1-4 3.1-5.6 3.3-27 19-28.9 21.2-1.1 1.1-2.4 2.1-2.9 2.1-.6 0-3.2 1.8-5.8 4s-5 4-5.2 4c-.3 0-5.5 3.4-11.6 7.5-6.2 4.1-11.5 7.5-11.9 7.6-1.9.1-15.8 10.8-16.9 12.9-.9 1.8-1.2 16.1-1.3 55.3 0 29.1-.3 53.3-.5 53.7s-.5 146.2-.6 323.9l-.1 323.3 2.3 1.6c2.5 1.8 4.9 2.1 36.4 4.2 23.4 1.5 69.8 1 73.6-.9 1.4-.7 3.3-2.6 4.3-4.2 1.5-2.6 1.6-4.5.7-21.1-.6-10.1-.8-36.2-.5-58.3.2-22 .8-195.5 1.2-385.5.7-278.3 1.1-347.7 2.1-356.9 1.3-10.8 1.3-11.5-.4-12.8-2.5-1.7-3.3-1.7-8 .8M829.4 185.6c-3.2 2.6-8.2 6.1-10.9 7.9-2.8 1.7-5.9 4-6.9 5.1-1 1-3.6 3-5.6 4.4-2.1 1.4-7.4 5.4-11.9 9s-10.6 8.3-13.5 10.5c-5.6 4.2-14 11.2-24 19.9-3.3 2.8-7.1 5.8-8.5 6.7s-4 3-5.7 4.5c-1.6 1.6-5.2 4.7-8 6.9-2.7 2.2-8 6.9-11.9 10.5-3.8 3.6-9 8-11.5 9.7s-5.4 4.1-6.5 5.3-5.1 4.7-9 7.6c-3.8 2.9-10.4 8-14.5 11.3s-9.8 7.8-12.7 10.1c-2.9 2.2-7.7 6.4-10.7 9.4-3.1 3-7.3 6.7-9.5 8.3-4.1 3-11.1 8.8-20.6 17-3.3 2.9-8.5 7.2-11.5 9.5-3 2.2-8 6.4-11 9.2-5.2 4.8-15.4 13.5-25.4 21.6-2.4 1.9-7.2 6-10.7 9.2-6.4 5.6-11.1 9.6-24.9 20.9-4.1 3.4-9.3 7.8-11.5 9.8s-6 5.2-8.5 7.1c-2.4 1.9-9.2 8.1-15 13.6-5.8 5.6-13.5 12.6-17.1 15.5-8.3 6.7-17.7 14.7-24.9 20.9-3 2.6-7.7 6.4-10.4 8.5-2.7 2-5.8 4.7-7 5.9s-4.8 4.3-8.1 6.8-7.3 6-9 7.8c-1.6 1.8-6.1 5.6-10 8.6-3.8 3-9.5 7.5-12.5 10s-8.2 6.7-11.5 9.5c-3.3 2.7-9.3 7.7-13.3 11.2-4.1 3.4-8.5 6.9-9.8 7.8-1.3.8-5.4 4.3-9.1 7.7-8.1 7.2-30.5 25.4-36.8 29.8-2.5 1.7-6.2 4.7-8.3 6.6-2.1 2-5.6 4.7-7.8 6.2-2.1 1.4-7.9 6-12.9 10.1-8 6.7-20 16.1-37.1 29.1-2.9 2.2-7.5 6-10.2 8.5-2.7 2.4-10.6 9.1-17.7 14.9-7 5.8-13.6 11.2-14.5 12.1s-4.2 3.2-7.2 5.2-8.9 6.7-13.2 10.4c-4.2 3.8-10.3 8.8-13.4 11.2-3.1 2.3-7.8 6.2-10.3 8.5-2.5 2.2-9.4 8.1-15.3 13.1-20.1 16.8-37.5 32.4-58.1 52.1-8.8 8.4-17.3 16.3-19 17.5-1.6 1.2-8.4 7.5-15 13.9s-14.2 13.4-17 15.5c-2.7 2.2-8.6 7.3-13 11.5-4.4 4.1-9.9 9.2-12.3 11.2-4.4 3.8-4.7 4.4-3.3 6.7.7 1.1 1.5 1.1 4.5.1 2-.6 3.6-1.6 3.6-2.1s.8-.9 1.9-.9c1 0 2.4-.7 3.1-1.5s1.8-1.5 2.6-1.5c1.4 0 6.2-3 13-8 2.3-1.6 4.6-3 5.2-3s1.5-.6 1.9-1.3c.4-.8 2.3-2.2 4.2-3.3 1.9-1 4.6-3 6-4.3 5.9-5.4 19-14.8 23.6-17 1.1-.5 4-2.5 6.5-4.5s4.9-3.6 5.3-3.6c.5 0 3.6-2 6.8-4.5 3.3-2.5 6.2-4.5 6.6-4.5.3 0 2.1-1.1 3.9-2.5s3.9-2.5 4.7-2.5c.7 0 2.4-1.2 3.8-2.6 1.3-1.4 3.9-3.5 5.9-4.7 3.6-2.2 12.6-8.9 24.2-17.9 3.7-2.9 9.4-7.4 12.8-10.1 3.3-2.6 6.3-4.7 6.6-4.7.4 0 3.7-2.5 7.4-5.5s7.2-5.5 7.7-5.5 2-1.1 3.2-2.4c1.3-1.4 7.3-5.8 13.5-9.9 6.1-4 14.4-9.6 18.4-12.3 4.1-2.7 8.1-5.4 9-5.9.9-.6 4.8-3.3 8.7-6 11.6-8.4 19.4-13.5 20.4-13.5.6 0 1.4-.6 1.8-1.3.4-.8 2.4-2.2 4.3-3.3 1.9-1 6.7-4.3 10.6-7.1 4-2.9 7.6-5.3 8-5.3.5-.1 2.5-1.4 4.4-3 1.9-1.7 4-3 4.6-3 .7 0 1.4-.4 1.6-.9.4-1 13.6-10.1 14.7-10.1.4 0 2.1-1.3 3.7-3 1.6-1.6 3.6-3 4.5-3 .8 0 2.8-1.3 4.4-3s3.6-3 4.6-3c.9 0 2.3-.7 3-1.6 1.3-1.6 12.6-9.4 13.5-9.4.3 0 3.2-2.2 6.5-5 3.3-2.7 6.3-5 6.8-5 .4 0 2.3-1.4 4.1-3 1.8-1.7 3.9-3 4.5-3 .7 0 2-1 3.1-2.1 1.8-2.1 10.3-7.9 15.4-10.7 1.4-.7 3.9-2.6 5.5-4.3 1.7-1.6 3.5-2.9 3.9-2.9s2.5-1.4 4.6-3c2.1-1.7 4.2-3 4.6-3 .5 0 2.3-1.3 4-2.8 1.8-1.5 4.8-3.6 6.8-4.7s3.6-2.3 3.6-2.7c0-.5.5-.8 1.1-.8 1.1 0 10.3-6.4 16.5-11.4 1.8-1.5 3.6-2.6 4.1-2.6s2.4-1.3 4.3-3c1.9-1.6 3.9-2.9 4.4-3 .4 0 2.5-1.3 4.5-2.8s4.8-3.4 6.4-4.1c1.5-.8 2.7-1.8 2.7-2.2 0-.5 1.5-1.5 3.4-2.4s4.2-2.5 5.2-3.6c.9-1 2.2-1.9 2.8-1.9s3.1-1.6 5.6-3.6c2.4-1.9 7.1-5.2 10.5-7.2 3.3-2 6.9-4.5 8-5.5s2.9-2.3 4-2.8c3.3-1.5 8.9-5 11-6.8 1.1-1 5.3-4 9.3-6.6 4-2.7 9.2-6.6 11.6-8.7s4.8-3.8 5.3-3.8c.4 0 2.8-1.6 5.2-3.5s4.7-3.5 5-3.5 2.2-1.5 4.2-3.3c2-1.7 5.1-4.1 7-5.1 1.9-1.1 3.6-2.2 3.9-2.6.3-.3 2.1-1.6 4-2.7 2-1.2 4.6-3.3 5.9-4.7 1.4-1.4 2.9-2.6 3.6-2.6.6 0 2.6-1.3 4.5-3 1.9-1.6 3.9-2.9 4.4-3 .5 0 3.7-2.5 7.1-5.5 3.5-3 6.6-5.5 7.1-5.5.4 0 2.2-1.1 4-2.5s3.7-2.5 4.1-2.5c.5 0 2.2-1.3 3.9-2.8 1.6-1.6 4.7-4.1 6.9-5.5 2.2-1.5 5.4-3.7 7-4.9 10.6-7.9 13.3-9.8 13.9-9.8.4 0 2.2-1.1 4-2.5s3.6-2.5 3.9-2.5c.4 0 4.2-2.7 8.6-6s8.3-6 8.6-6c.4 0 2.7-1.8 5.2-4s5-4 5.5-4c.6 0 5.2-3.2 10.3-7 5.1-3.9 9.7-7 10.2-7s2.2-1.4 3.8-3c1.6-1.7 3.4-3 3.9-3 .6 0 2.7-1.4 4.6-3.1 1.9-1.8 6-5 9-7.2s5.9-4.6 6.3-5.4c.4-.7 1.4-1.3 2.1-1.3s3.6-2 6.5-4.5c3-2.5 6.5-5.2 8-5.9 1.4-.8 3.7-2.6 5-4 1.4-1.4 3-2.6 3.6-2.6.7 0 3.8-2.3 6.9-5 3.1-2.8 6.1-5 6.5-5 .5 0 2.4-1.3 4.2-3 1.9-1.6 3.9-3 4.4-3 .6 0 2.5-1.4 4.3-3 1.8-1.7 3.7-3 4-3 .4 0 2.3-1.3 4.2-3 1.9-1.6 3.9-2.9 4.3-3 .5 0 3.2-2 6-4.3 7.5-6.3 20.2-15 25.6-17.4 2-.9 7.6-6.5 9.4-9.5 1.5-2.5 1.7-7.6 1.7-50.3 0-40 .2-48.1 1.5-51.2 2.1-4.9 1.9-7.6-.7-10-3.9-3.4-4.4-3.4-10.4 1.3m10.2 147.1c-3.3.5-7.1 2.9-17.6 11.3-4.1 3.3-9.7 7.8-12.5 9.9-2.7 2.2-6.6 5.4-8.5 7.2s-7.7 6.3-12.8 10c-5.2 3.8-10.8 8-12.5 9.4-7.3 5.8-12.4 9.6-16.2 12.2-2.2 1.6-5.3 4-7 5.5-1.6 1.6-4.5 3.5-6.2 4.3-1.8.9-3.3 2-3.3 2.5 0 .6-.6 1-1.3 1s-2.8 1.3-4.7 3c-1.9 1.6-4 2.9-4.6 3-.6 0-2.1 1.1-3.4 2.5-4.7 5-4.7 4.9-4.8 236.5-.2 132.8-.6 219.4-1.2 222.5-.5 2.7-.9 6.1-1 7.5 0 1.4-.1 4.4-.3 6.8-.2 3.7.2 4.5 2.3 5.6 5.3 2.8 12.2 3.9 31 4.6 10.7.5 22.2 1.3 25.5 1.9s13.2 1.1 22 1.1 17.8.5 20 1.1c7.8 2.1 12.5 2.2 14.6.4 1.9-1.8 1.9-4.8 2-175.4 0-95.5.5-187.8 1-205.1.6-17.3 1.4-52 1.9-77 .8-43.7 2.8-81 4.9-91.5 1.8-9.4 2-18.4.4-20-1.4-1.5-2.3-1.6-7.7-.8M655.4 465.1c-1.6 1.7-5.6 5.1-8.9 7.6-3.2 2.5-8.9 7.1-12.5 10.3-7 6.3-14.6 12.2-17.8 13.9-1.1.6-4.4 3.1-7.3 5.6s-5.7 4.5-6.2 4.5-2.6 1.4-4.6 3c-5.1 4.3-15.8 12.9-21.1 17-2.5 1.9-5.6 4.5-7 5.7-1.4 1.3-2.9 2.3-3.3 2.3-.5 0-2.6 1.2-4.6 2.7-2 1.6-4.3 3.2-5.2 3.8-3.3 2-12.2 9.6-14 11.9S541 562 541 723.8l-.1 168.1 2.2 3.1 2.3 3h31.2c23.6 0 33.1.4 39.1 1.5 9 1.7 32.9 2 38.5.4 5-1.3 7.4-5.6 5.9-10.1-.8-2.2-1.1-56.5-1.1-178.2 0-149.7.2-176.4 1.5-184.1 1-6.1 1.5-16.4 1.5-31.6 0-13.5.4-23.8 1.1-25.7.8-2.5.7-3.5-.6-5.6-2.2-3.4-3.5-3.3-7.1.5M477.3 597.3c-3.2 2.9-7.8 6.8-10.3 8.7s-6.3 5.2-8.5 7.2c-2.1 2.1-4.4 3.8-5 3.8-.5 0-3.1 1.9-5.7 4.2-2.6 2.4-8.6 7-13.3 10.3s-9.6 7-10.7 8.2c-1.2 1.3-2.6 2.3-3.2 2.3s-3.4 2-6.3 4.5c-2.8 2.5-5.4 4.5-5.8 4.5s-3.9 2.4-7.9 5.3c-3.9 2.9-10.5 7.5-14.6 10.2s-9 6.2-10.7 7.9l-3.3 3v102.3c0 98.5.1 102.5 1.9 106.1 4 7.8 3.1 7.6 42.9 9.1 13.9.6 27.9 1.5 31 2.1 3 .5 12.1 1 20.1 1 16.3 0 17.7-.5 20.4-7 1.1-2.9 1.2-5.9.5-16-.5-6.9-.7-25.6-.3-41.5 1-49.1 1.2-238.9.2-240.3-1.9-2.5-5.6-1.2-11.4 4.1M276 725.5c-.7.8-1.8 1.5-2.5 1.5s-4.3 2.8-8 6.2c-3.7 3.5-7.9 7-9.4 7.9-1.4.9-4.1 3.1-6 4.9-1.9 1.7-5.8 4.9-8.7 7.1-2.9 2.1-5.5 4.3-5.9 4.9-.3.6-4.8 3.8-9.8 7.2-13.9 9.3-19.9 13.5-22.7 15.7-1.4 1.1-3.1 2.1-3.7 2.1-.7 0-1.3.4-1.3 1 0 .5-1.7 1.8-3.7 2.9-2.1 1-4.7 2.8-5.7 4-1.1 1.2-3.9 3.1-6.4 4.3-4.5 2.3-10.2 7.9-10.2 10.1 0 1.4 7.1 8.7 8.4 8.7 1.1 0 18.7 13.2 20.5 15.3.7 1 1.8 1.7 2.3 1.7.6 0 4.2 2.1 8 4.7 10.5 7.2 14.8 9.8 23 14 1.5.8 3 1.8 3.3 2.4.4.5 1.4.9 2.4.9s2.4.7 3.1 1.5 2 1.5 3 1.5 2.3.7 3 1.5 2.1 1.5 3 1.5c1.6 0 5.2 1.5 10 4.2.8.4 2.2 1.1 3 1.4 4.5 1.8 6.8 2.7 9.3 4 1.6.8 3.8 1.4 5 1.4s3.1.7 4.1 1.5c1.1.8 3.2 1.5 4.7 1.5s4 .7 5.5 1.5c1.6.8 3.8 1.5 4.9 1.5s2.9.7 3.9 1.5c1.1.8 3.1 1.5 4.5 1.5s3.2.4 4 .9c.9.6 2.6.4 4.5-.6 4.5-2.1 7.1-8.4 4.5-11-1.3-1.3-.6-72.5.9-95.8 1.2-17.5.7-19.4-6.3-24.7-2.4-1.8-8-6.1-12.4-9.6-4.4-3.4-8.4-6.2-8.8-6.2-.5 0-1.9-1-3.3-2.3-6.3-5.6-11.5-7.2-14-4.2"/></svg>